STARTFONT 2.1
COMMENT AUTOMATICALLY GENERATED FILE. DO NOT EDIT!
COMMENT Generated with 'ucs2any.pl lubBI24.bdf ../../../fonts/util/map-ISO8859-1 ISO8859-1'
COMMENT from an ISO10646-1 encoded source BDF font.
COMMENT ucs2any.pl by Markus Kuhn <mkuhn@acm.org>, 2000.
COMMENT $Xorg: $
COMMENT ISO10646-1 extension by Markus Kuhn <mkuhn@acm.org>, 2001-03-20
COMMENT  (c) Copyright Bigelow & Holmes 1986, 1985. Lucida is a registered
COMMENT  trademark of Bigelow & Holmes. See LEGAL NOTICE file for terms 
COMMENT  of the license. 
FONT -B&H-LucidaBright-DemiBold-I-Normal--24-240-75-75-P-143-ISO8859-1
SIZE 24 72 72
FONTBOUNDINGBOX 40 27 -15 -5
STARTPROPERTIES 22
COMMENT Begin LogicalFontDescription
FONTNAME_REGISTRY ""
FOUNDRY "B&H"
FAMILY_NAME "LucidaBright"
WEIGHT_NAME "DemiBold"
SLANT "I"
SETWIDTH_NAME "Normal"
ADD_STYLE_NAME ""
PIXEL_SIZE 24
POINT_SIZE 240
RESOLUTION_X 75
RESOLUTION_Y 75
SPACING "P"
AVERAGE_WIDTH 143
CHARSET_REGISTRY "ISO8859"
CHARSET_ENCODING "1"
COMMENT END LogicalFontDescription
FONT_ASCENT 22
FONT_DESCENT 6
DEFAULT_CHAR 0
COPYRIGHT "Copyright Bigelow & Holmes 1986, 1985."
FACE_NAME "Lucida Bright Demibold Italic"
X_HEIGHT 13
CAP_HEIGHT 17
ENDPROPERTIES
CHARS 192
STARTCHAR defaultchar
ENCODING 0
SWIDTH 827 0
DWIDTH 20 0
BBX 21 17 1 0
BITMAP
AAAAA8
000000
800008
000000
800008
000000
800008
000000
800008
000000
800008
000000
800008
000000
800008
000000
AAAAA8
ENDCHAR
STARTCHAR space
ENCODING 32
SWIDTH 333 0
DWIDTH 8 0
BBX 1 1 0 0
BITMAP
00
ENDCHAR
STARTCHAR exclam
ENCODING 33
SWIDTH 265 0
DWIDTH 6 0
BBX 7 17 1 0
BITMAP
1E
1E
1C
1C
1C
1C
38
38
38
30
30
30
00
00
F0
F0
F0
ENDCHAR
STARTCHAR quotedbl
ENCODING 34
SWIDTH 451 0
DWIDTH 11 0
BBX 9 6 4 11
BITMAP
E780
E700
E300
6300
6300
4300
ENDCHAR
STARTCHAR numbersign
ENCODING 35
SWIDTH 636 0
DWIDTH 16 0
BBX 15 17 2 0
BITMAP
00C6
0084
018C
0108
0318
7FFE
0620
0460
0C40
08C0
FFFC
3180
3100
2300
6300
4200
C600
ENDCHAR
STARTCHAR dollar
ENCODING 36
SWIDTH 636 0
DWIDTH 15 0
BBX 13 22 3 -3
BITMAP
0080
0080
07F8
0E98
1C98
1910
1900
1D00
1F00
0F00
0780
03C0
03E0
06E0
04E0
44E0
C4C0
E7C0
FF00
0800
0800
0800
ENDCHAR
STARTCHAR percent
ENCODING 37
SWIDTH 772 0
DWIDTH 19 0
BBX 20 17 1 0
BITMAP
1F0070
3980C0
718180
61C300
618600
E18C00
639800
673000
3C6000
00C7C0
018E60
031C70
061870
0C1860
1818E0
3019C0
E00F80
ENDCHAR
STARTCHAR ampersand
ENCODING 38
SWIDTH 773 0
DWIDTH 19 0
BBX 19 17 1 0
BITMAP
007C00
01CE00
038600
078600
078E00
039C00
03B800
07E000
1DC7E0
71E1C0
F1E180
E0F180
E07300
F07E00
703C00
783E00
1FDF80
ENDCHAR
STARTCHAR quotesingle
ENCODING 39
SWIDTH 247 0
DWIDTH 6 0
BBX 4 6 4 11
BITMAP
F0
E0
60
60
60
60
ENDCHAR
STARTCHAR parenleft
ENCODING 40
SWIDTH 336 0
DWIDTH 8 0
BBX 9 22 2 -5
BITMAP
0080
0300
0600
0C00
1C00
1800
3800
7000
7000
7000
F000
F000
E000
E000
E000
E000
E000
6000
6000
3000
3000
1000
ENDCHAR
STARTCHAR parenright
ENCODING 41
SWIDTH 336 0
DWIDTH 8 0
BBX 9 22 0 -5
BITMAP
0800
0400
0600
0700
0300
0300
0380
0780
0780
0780
0780
0700
0700
0700
0E00
0E00
1C00
1800
3800
3000
4000
8000
ENDCHAR
STARTCHAR asterisk
ENCODING 42
SWIDTH 434 0
DWIDTH 11 0
BBX 9 9 4 8
BITMAP
0E00
0C00
4C80
FF80
6300
1C00
3600
E600
4400
ENDCHAR
STARTCHAR plus
ENCODING 43
SWIDTH 636 0
DWIDTH 15 0
BBX 14 14 2 0
BITMAP
0180
0180
0180
0100
0100
0300
FFFC
0300
0200
0200
0600
0600
0600
0600
ENDCHAR
STARTCHAR comma
ENCODING 44
SWIDTH 265 0
DWIDTH 6 0
BBX 5 10 1 -5
BITMAP
78
78
78
70
70
30
30
70
E0
80
ENDCHAR
STARTCHAR hyphen
ENCODING 45
SWIDTH 289 0
DWIDTH 7 0
BBX 6 1 2 8
BITMAP
FC
ENDCHAR
STARTCHAR period
ENCODING 46
SWIDTH 265 0
DWIDTH 6 0
BBX 5 4 1 0
BITMAP
78
78
F0
F0
ENDCHAR
STARTCHAR slash
ENCODING 47
SWIDTH 515 0
DWIDTH 12 0
BBX 16 21 0 -4
BITMAP
0003
0006
0004
0008
0018
0010
0020
0060
0040
0080
0180
0100
0200
0600
0400
0800
1800
1000
2000
6000
C000
ENDCHAR
STARTCHAR zero
ENCODING 48
SWIDTH 623 0
DWIDTH 15 0
BBX 14 17 2 0
BITMAP
03E0
0638
1C38
1C1C
381C
781C
701C
703C
F03C
F03C
F038
F078
F070
F070
70E0
71C0
1F00
ENDCHAR
STARTCHAR one
ENCODING 49
SWIDTH 636 0
DWIDTH 15 0
BBX 10 17 3 0
BITMAP
1FC0
03C0
0380
0380
0380
0780
0780
0700
0700
0700
0F00
0F00
0E00
0E00
0E00
1E00
FFC0
ENDCHAR
STARTCHAR two
ENCODING 50
SWIDTH 636 0
DWIDTH 15 0
BBX 14 17 2 0
BITMAP
07F0
1C78
183C
183C
003C
003C
0078
00E0
01C0
0300
0400
1800
3000
7000
7FF0
FFE0
FFE0
ENDCHAR
STARTCHAR three
ENCODING 51
SWIDTH 636 0
DWIDTH 15 0
BBX 13 17 2 0
BITMAP
0FE0
0C78
0838
1838
0038
0070
01E0
1F80
01C0
00E0
0070
0070
0070
40F0
C0E0
E1C0
7F00
ENDCHAR
STARTCHAR four
ENCODING 52
SWIDTH 636 0
DWIDTH 15 0
BBX 14 17 2 0
BITMAP
001C
0038
0078
00B8
0138
0638
0C70
1870
3070
6070
FFFC
FFFC
00E0
00E0
00E0
01E0
07F8
ENDCHAR
STARTCHAR five
ENCODING 53
SWIDTH 636 0
DWIDTH 15 0
BBX 14 17 3 0
BITMAP
0FFC
0FFC
1FFC
1800
1000
1000
1000
3F00
03C0
00E0
00F0
00F0
00F0
40E0
C0E0
E1C0
FE00
ENDCHAR
STARTCHAR six
ENCODING 54
SWIDTH 636 0
DWIDTH 15 0
BBX 14 17 3 0
BITMAP
01FC
070C
0C0C
1C0C
3800
7800
77E0
78F0
F078
F078
F038
F078
F078
F070
70E0
39C0
1F00
ENDCHAR
STARTCHAR seven
ENCODING 55
SWIDTH 636 0
DWIDTH 15 0
BBX 13 17 4 0
BITMAP
7FF8
7FF8
7FF0
0030
0060
00C0
0180
0300
0700
0E00
1C00
3C00
3800
7800
7000
F000
F000
ENDCHAR
STARTCHAR eight
ENCODING 56
SWIDTH 636 0
DWIDTH 15 0
BBX 14 17 2 0
BITMAP
03F0
0E3C
1C1C
1C1C
1C1C
1E38
1F70
0FC0
0FE0
39F8
7078
F038
F038
F038
F030
7860
1F80
ENDCHAR
STARTCHAR nine
ENCODING 57
SWIDTH 636 0
DWIDTH 15 0
BBX 14 17 2 0
BITMAP
03E0
0E30
1C38
381C
381C
781C
781C
783C
383C
3C7C
1FB8
0078
0070
40E0
C0C0
C380
7E00
ENDCHAR
STARTCHAR colon
ENCODING 58
SWIDTH 265 0
DWIDTH 6 0
BBX 6 13 1 0
BITMAP
3C
3C
38
00
00
00
00
00
00
00
70
F0
F0
ENDCHAR
STARTCHAR semicolon
ENCODING 59
SWIDTH 265 0
DWIDTH 6 0
BBX 7 18 0 -5
BITMAP
1E
1E
1C
00
00
00
00
00
00
00
00
78
78
38
30
30
70
C0
ENDCHAR
STARTCHAR less
ENCODING 60
SWIDTH 636 0
DWIDTH 15 0
BBX 15 14 2 0
BITMAP
0002
000E
0038
00E0
0380
1E00
F800
7800
1C00
0F00
03C0
00F0
0038
0010
ENDCHAR
STARTCHAR equal
ENCODING 61
SWIDTH 636 0
DWIDTH 15 0
BBX 15 8 1 3
BITMAP
7FFE
0000
0000
0000
0000
0000
0000
FFFC
ENDCHAR
STARTCHAR greater
ENCODING 62
SWIDTH 636 0
DWIDTH 15 0
BBX 15 14 1 0
BITMAP
1000
3800
1E00
0780
01E0
0070
003C
003E
00F0
0380
0E00
3800
E000
8000
ENDCHAR
STARTCHAR question
ENCODING 63
SWIDTH 493 0
DWIDTH 12 0
BBX 11 17 3 0
BITMAP
3F80
63C0
41E0
C0E0
01E0
01C0
0380
0600
0C00
1800
3800
7800
0000
0000
F000
F000
F000
ENDCHAR
STARTCHAR at
ENCODING 64
SWIDTH 861 0
DWIDTH 21 0
BBX 18 17 3 0
BITMAP
00FC00
070700
0C0180
100080
20FC40
631840
421840
C61840
843840
8C38C0
8C5080
8CB100
871E00
400000
200000
183000
07E000
ENDCHAR
STARTCHAR A
ENCODING 65
SWIDTH 765 0
DWIDTH 18 0
BBX 19 17 0 0
BITMAP
000C00
001C00
003C00
003E00
007E00
00CE00
008E00
018F00
010F00
020F00
060700
07FF00
080780
180780
100380
3003C0
F80FE0
ENDCHAR
STARTCHAR B
ENCODING 66
SWIDTH 651 0
DWIDTH 16 0
BBX 16 17 1 0
BITMAP
1FFC
078F
070F
070F
070F
0F0E
0F0C
0E38
0FF0
1E3C
1E1E
1E1E
1C1E
1C1E
3C1E
3C7C
FFF0
ENDCHAR
STARTCHAR C
ENCODING 67
SWIDTH 740 0
DWIDTH 18 0
BBX 17 17 2 0
BITMAP
00FF00
038380
0E0180
1C0100
3C0300
380000
780000
700000
F00000
F00000
F00000
F00000
F00000
700000
780000
3C0C00
0FF000
ENDCHAR
STARTCHAR D
ENCODING 68
SWIDTH 822 0
DWIDTH 20 0
BBX 20 17 1 0
BITMAP
1FFF00
0783C0
0781E0
0780F0
0700F0
0F00F0
0F00F0
0F00F0
0E00F0
1E00E0
1E00E0
1E01E0
1E01C0
1C0380
3C0700
3C1E00
FFF800
ENDCHAR
STARTCHAR E
ENCODING 69
SWIDTH 630 0
DWIDTH 15 0
BBX 16 17 1 0
BITMAP
1FFF
0783
0702
0700
0F00
0F00
0F00
0E08
0FF8
1E10
1E00
1E00
1C00
1C00
3C0C
3C18
FFF8
ENDCHAR
STARTCHAR F
ENCODING 70
SWIDTH 602 0
DWIDTH 14 0
BBX 16 17 1 0
BITMAP
1FFF
0783
0702
0700
0F00
0F00
0F00
0E08
0FF8
1E10
1E00
1E00
1C00
1C00
3C00
3C00
FF00
ENDCHAR
STARTCHAR G
ENCODING 71
SWIDTH 780 0
DWIDTH 19 0
BBX 17 17 3 0
BITMAP
00FF80
078380
0E0180
1C0300
3C0000
380000
780000
700000
F00000
F07F80
F01E00
F01E00
F01C00
701C00
781C00
3C3C00
0FF000
ENDCHAR
STARTCHAR H
ENCODING 72
SWIDTH 827 0
DWIDTH 20 0
BBX 22 17 1 0
BITMAP
1FE3FC
0780F0
0780F0
0700E0
0701E0
0F01E0
0F01E0
0F01E0
0FFFC0
1E03C0
1E03C0
1E03C0
1E0380
1C0380
3C0780
3C0780
FF1FE0
ENDCHAR
STARTCHAR I
ENCODING 73
SWIDTH 372 0
DWIDTH 9 0
BBX 11 17 1 0
BITMAP
1FE0
0780
0780
0700
0700
0F00
0F00
0F00
0E00
1E00
1E00
1E00
1C00
1C00
3C00
3C00
FF00
ENDCHAR
STARTCHAR J
ENCODING 74
SWIDTH 478 0
DWIDTH 11 0
BBX 15 21 0 -4
BITMAP
01FE
0078
0078
0070
00F0
00F0
00F0
00F0
00E0
01E0
01E0
01E0
01E0
01C0
03C0
03C0
03C0
6380
C380
C700
FC00
ENDCHAR
STARTCHAR K
ENCODING 75
SWIDTH 746 0
DWIDTH 18 0
BBX 19 17 1 0
BITMAP
1FE3E0
078180
070300
070600
071800
0F3000
0F6000
0EC000
0FE000
1EF000
1EF800
1E7800
1C3C00
1C3E00
3C1E00
3C0F00
FE3FC0
ENDCHAR
STARTCHAR L
ENCODING 76
SWIDTH 611 0
DWIDTH 15 0
BBX 14 17 1 0
BITMAP
1FE0
0780
0700
0700
0F00
0F00
0F00
0E00
0E00
1E00
1E00
1E00
1C00
1C0C
3C0C
3C08
FFF8
ENDCHAR
STARTCHAR M
ENCODING 77
SWIDTH 926 0
DWIDTH 22 0
BBX 24 17 1 0
BITMAP
1F803F
07803C
07807C
078078
0DC0B8
0DC1B8
0DC178
0DC278
08E670
18E470
18E870
18F8F0
1070F0
1060E0
3060E0
3001E0
FC07F8
ENDCHAR
STARTCHAR N
ENCODING 78
SWIDTH 797 0
DWIDTH 19 0
BBX 21 17 1 0
BITMAP
1F01F8
078060
078060
07C040
0DC0C0
0DE0C0
0CE0C0
0CF0C0
087080
187980
183D80
183D80
181F80
100F00
300F00
300700
FC0700
ENDCHAR
STARTCHAR O
ENCODING 79
SWIDTH 831 0
DWIDTH 20 0
BBX 18 17 3 0
BITMAP
00FC00
038700
0E0380
1C03C0
3C03C0
3803C0
7803C0
7003C0
F003C0
F003C0
F00380
F00780
F00700
F00E00
701C00
383000
0FC000
ENDCHAR
STARTCHAR P
ENCODING 80
SWIDTH 628 0
DWIDTH 15 0
BBX 16 17 1 0
BITMAP
1FFC
070E
070F
070F
0F0F
0F0F
0E0E
0E1C
0E38
1FE0
1C00
1C00
1C00
1C00
3C00
3C00
FF00
ENDCHAR
STARTCHAR Q
ENCODING 81
SWIDTH 835 0
DWIDTH 20 0
BBX 20 22 3 -5
BITMAP
00FC00
038700
0E0380
1C0380
3C03C0
3803C0
7803C0
7003C0
F003C0
F003C0
F003C0
F00780
F00780
F00F00
701F00
383E00
0FFC00
00F000
006000
003000
000C00
0003F0
ENDCHAR
STARTCHAR R
ENCODING 82
SWIDTH 711 0
DWIDTH 17 0
BBX 16 17 1 0
BITMAP
1FFC
070F
070F
070F
0F0F
0E0F
0E1E
0E3C
0FF8
1EF0
1E70
1C78
1C38
1C3C
3C3C
3C1E
FE1F
ENDCHAR
STARTCHAR S
ENCODING 83
SWIDTH 587 0
DWIDTH 14 0
BBX 14 17 2 0
BITMAP
03F8
0E1C
1C0C
1C08
1C00
1E00
1F00
0F80
07E0
03F0
01F0
00F0
0070
40F0
C0E0
E1C0
7F00
ENDCHAR
STARTCHAR T
ENCODING 84
SWIDTH 716 0
DWIDTH 17 0
BBX 17 17 3 0
BITMAP
7FFF80
E1C180
C1C180
C3C100
03C000
03C000
038000
038000
078000
078000
078000
070000
0F0000
0F0000
0F0000
1F0000
7FC000
ENDCHAR
STARTCHAR U
ENCODING 85
SWIDTH 775 0
DWIDTH 19 0
BBX 18 17 4 0
BITMAP
FF0FC0
3C0300
380200
380200
780200
780600
780400
700400
700400
F00400
F00800
F00800
F00800
F01000
701000
786000
1F8000
ENDCHAR
STARTCHAR V
ENCODING 86
SWIDTH 741 0
DWIDTH 18 0
BBX 18 17 3 0
BITMAP
FE07C0
780100
380300
3C0200
3C0400
3C0400
1C0800
1C1000
1E1000
1E2000
1E6000
0E4000
0F8000
0F8000
0F0000
070000
060000
ENDCHAR
STARTCHAR W
ENCODING 87
SWIDTH 922 0
DWIDTH 22 0
BBX 22 17 3 0
BITMAP
FC183C
783818
783830
787820
787820
38F840
38B8C0
39B880
393980
3B3900
3A3B00
3E3E00
3C3E00
3C1C00
381C00
381800
301800
ENDCHAR
STARTCHAR X
ENCODING 88
SWIDTH 672 0
DWIDTH 16 0
BBX 19 17 0 0
BITMAP
0FE3E0
078180
038100
03C200
03C600
01EC00
01F800
00F000
00F000
01F000
037800
023800
043C00
083C00
101C00
301E00
F87F00
ENDCHAR
STARTCHAR Y
ENCODING 89
SWIDTH 669 0
DWIDTH 16 0
BBX 16 17 3 0
BITMAP
FE1F
7804
380C
3C18
3C30
1E20
1E40
0EC0
0F80
0F00
0F00
0F00
0E00
0E00
1E00
1E00
7F80
ENDCHAR
STARTCHAR Z
ENCODING 90
SWIDTH 684 0
DWIDTH 16 0
BBX 16 17 2 0
BITMAP
0FFF
0C1E
183E
003C
0078
00F0
01F0
01E0
03C0
0780
0F80
0F00
1E00
3C00
780C
F818
FFF8
ENDCHAR
STARTCHAR bracketleft
ENCODING 91
SWIDTH 336 0
DWIDTH 8 0
BBX 10 21 1 -4
BITMAP
0FC0
0E00
0E00
0E00
0E00
1C00
1C00
1C00
1C00
3800
3800
3800
3800
3800
7000
7000
7000
7000
7000
E000
FC00
ENDCHAR
STARTCHAR backslash
ENCODING 92
SWIDTH 515 0
DWIDTH 12 0
BBX 7 21 4 -4
BITMAP
C0
40
40
40
60
20
20
20
30
10
10
10
18
08
08
08
0C
04
04
04
06
ENDCHAR
STARTCHAR bracketright
ENCODING 93
SWIDTH 336 0
DWIDTH 8 0
BBX 10 21 0 -4
BITMAP
0FC0
01C0
0380
0380
0380
0380
0380
0700
0700
0700
0700
0F00
0E00
0E00
0E00
0E00
1C00
1C00
1C00
1C00
FC00
ENDCHAR
STARTCHAR asciicircum
ENCODING 94
SWIDTH 636 0
DWIDTH 15 0
BBX 14 14 1 3
BITMAP
0040
0040
00E0
01E0
01E0
0360
0630
0430
0C30
1818
3018
3018
600C
C00C
ENDCHAR
STARTCHAR underscore
ENCODING 95
SWIDTH 500 0
DWIDTH 12 0
BBX 10 1 1 -3
BITMAP
FFC0
ENDCHAR
STARTCHAR grave
ENCODING 96
SWIDTH 599 0
DWIDTH 14 0
BBX 5 3 8 14
BITMAP
F0
30
18
ENDCHAR
STARTCHAR a
ENCODING 97
SWIDTH 634 0
DWIDTH 15 0
BBX 14 13 2 0
BITMAP
03FC
043C
183C
3838
3838
7078
70F8
F0F8
F170
F370
FEF0
FCF0
70FC
ENDCHAR
STARTCHAR b
ENCODING 98
SWIDTH 633 0
DWIDTH 15 0
BBX 14 17 2 0
BITMAP
3E00
1E00
1E00
1C00
1C38
1CFC
3DFC
3B3C
3A3C
3C3C
7838
7838
7070
7060
7060
F080
FF00
ENDCHAR
STARTCHAR c
ENCODING 99
SWIDTH 524 0
DWIDTH 13 0
BBX 12 13 2 0
BITMAP
03F0
0E30
1C30
3830
7000
7000
F000
F000
F000
F000
F000
7040
3F80
ENDCHAR
STARTCHAR d
ENCODING 100
SWIDTH 634 0
DWIDTH 15 0
BBX 15 17 2 0
BITMAP
007E
001E
001C
001C
03FC
043C
183C
1838
3038
7078
7078
F0F8
F170
F370
FEF0
FCF0
70F8
ENDCHAR
STARTCHAR e
ENCODING 101
SWIDTH 548 0
DWIDTH 13 0
BBX 12 13 2 0
BITMAP
03C0
0CE0
18F0
30F0
70E0
70E0
F380
FF00
F000
F000
F030
7860
3F80
ENDCHAR
STARTCHAR f
ENCODING 102
SWIDTH 415 0
DWIDTH 10 0
BBX 13 24 1 -5
BITMAP
01F8
0318
0718
0E10
0E00
0E00
3FE0
1E00
1C00
1C00
1C00
3C00
3C00
3800
3800
3800
7800
7800
7000
7000
7000
F000
F000
F000
ENDCHAR
STARTCHAR g
ENCODING 103
SWIDTH 628 0
DWIDTH 15 0
BBX 15 18 1 -5
BITMAP
01FE
061E
0C1C
1C1C
181C
383C
787C
7078
70B8
79B8
7F78
7E78
3870
0070
8070
C0E0
70C0
7F00
ENDCHAR
STARTCHAR h
ENCODING 104
SWIDTH 656 0
DWIDTH 16 0
BBX 14 17 2 0
BITMAP
3E00
1E00
1E00
1E00
1C38
1CFC
3DFC
3DBC
3A3C
3E38
7C38
7838
7878
7078
7070
F070
F0FC
ENDCHAR
STARTCHAR i
ENCODING 105
SWIDTH 319 0
DWIDTH 8 0
BBX 7 17 2 0
BITMAP
1E
1E
1C
00
FC
3C
3C
38
38
78
78
78
70
70
F0
F0
FC
ENDCHAR
STARTCHAR j
ENCODING 106
SWIDTH 381 0
DWIDTH 9 0
BBX 13 22 -1 -5
BITMAP
0078
0078
0078
0000
03F0
00F0
00E0
00E0
00E0
01E0
01E0
01C0
01C0
01C0
03C0
03C0
0380
0380
4300
C700
C600
F800
ENDCHAR
STARTCHAR k
ENCODING 107
SWIDTH 626 0
DWIDTH 15 0
BBX 13 17 2 0
BITMAP
3E00
1E00
1C00
1C00
1C78
3C38
3C70
38E0
39C0
3F00
7F00
7780
73C0
71C0
71E0
F0F0
E0F8
ENDCHAR
STARTCHAR l
ENCODING 108
SWIDTH 319 0
DWIDTH 8 0
BBX 7 17 2 0
BITMAP
3E
1E
1E
1C
1C
3C
3C
38
38
38
78
78
70
70
F0
F0
F8
ENDCHAR
STARTCHAR m
ENCODING 109
SWIDTH 969 0
DWIDTH 23 0
BBX 21 13 2 0
BITMAP
FC7070
3CF9F8
39F9F8
3B3B78
3E3E78
7C7C70
787870
787070
707070
70F0F0
F0F0E0
F0E0E0
E0E0F8
ENDCHAR
STARTCHAR n
ENCODING 110
SWIDTH 656 0
DWIDTH 16 0
BBX 14 13 2 0
BITMAP
FC38
3C7C
3DFC
39BC
3A3C
3C38
7C38
7838
7078
7078
7070
F070
F0FC
ENDCHAR
STARTCHAR o
ENCODING 111
SWIDTH 599 0
DWIDTH 14 0
BBX 13 13 2 0
BITMAP
03E0
0C70
1C38
3838
7038
7038
F038
F078
F070
F060
F0E0
7980
3E00
ENDCHAR
STARTCHAR p
ENCODING 112
SWIDTH 639 0
DWIDTH 15 0
BBX 15 18 1 -5
BITMAP
7E1C
1E7E
1CFE
1D9E
1D1E
3E1E
3C1C
3C1C
3838
3838
7830
7840
7F80
7000
7000
F000
F000
F000
ENDCHAR
STARTCHAR q
ENCODING 113
SWIDTH 630 0
DWIDTH 15 0
BBX 14 18 2 -5
BITMAP
03FC
043C
183C
3838
3038
7078
7078
F0F8
F170
F370
FEF0
FCF0
70F0
00E0
00E0
00E0
01E0
01E0
ENDCHAR
STARTCHAR r
ENCODING 114
SWIDTH 496 0
DWIDTH 12 0
BBX 12 13 2 0
BITMAP
FC70
3CE0
3DE0
3B00
3E00
7C00
7800
7800
7000
7000
F000
F000
F000
ENDCHAR
STARTCHAR s
ENCODING 115
SWIDTH 479 0
DWIDTH 11 0
BBX 11 13 1 0
BITMAP
07E0
1C60
1860
3C60
1C00
1E00
0F00
0780
03C0
C1C0
C3C0
C380
7E00
ENDCHAR
STARTCHAR t
ENCODING 116
SWIDTH 375 0
DWIDTH 9 0
BBX 9 16 2 0
BITMAP
1C00
1C00
3C00
FF80
3800
3800
3800
7800
7800
7000
7000
F000
F000
F000
7200
3C00
ENDCHAR
STARTCHAR u
ENCODING 117
SWIDTH 655 0
DWIDTH 16 0
BBX 14 13 2 0
BITMAP
FCFC
383C
3838
7838
7878
7078
70F8
70F0
F170
F670
FEF0
FCF0
70FC
ENDCHAR
STARTCHAR v
ENCODING 118
SWIDTH 584 0
DWIDTH 14 0
BBX 14 13 2 0
BITMAP
F83C
781C
381C
3C18
3C30
1C30
1C60
1EC0
1F80
0F00
0E00
0C00
0800
ENDCHAR
STARTCHAR w
ENCODING 119
SWIDTH 822 0
DWIDTH 20 0
BBX 19 13 2 0
BITMAP
F021E0
7860E0
3860C0
3870C0
38F080
1CF100
1D7300
1F3A00
1E3C00
1E3C00
1C3800
183000
183000
ENDCHAR
STARTCHAR x
ENCODING 120
SWIDTH 534 0
DWIDTH 13 0
BBX 13 13 1 0
BITMAP
3C38
1E38
1E38
0E30
0F60
0780
0780
0F80
1BC0
31C0
61E0
E0E0
E0F0
ENDCHAR
STARTCHAR y
ENCODING 121
SWIDTH 586 0
DWIDTH 14 0
BBX 16 18 0 -5
BITMAP
3E0F
0E07
0F07
0706
070E
070C
0798
07B0
03A0
03E0
03C0
0380
0300
0200
0600
0C00
3800
F800
ENDCHAR
STARTCHAR z
ENCODING 122
SWIDTH 567 0
DWIDTH 14 0
BBX 14 13 1 0
BITMAP
1FFC
1838
3070
00F0
01E0
03C0
0780
0F00
1E00
3C00
7C18
7830
FFF0
ENDCHAR
STARTCHAR braceleft
ENCODING 123
SWIDTH 361 0
DWIDTH 9 0
BBX 9 21 2 -4
BITMAP
0780
0E00
0E00
1E00
1E00
1E00
1E00
1C00
1C00
3800
E000
3000
3800
3800
7800
7000
F000
F000
E000
E000
3800
ENDCHAR
STARTCHAR bar
ENCODING 124
SWIDTH 253 0
DWIDTH 6 0
BBX 6 21 2 -4
BITMAP
0C
0C
0C
18
18
18
18
18
30
30
30
30
30
60
60
60
60
60
C0
C0
C0
ENDCHAR
STARTCHAR braceright
ENCODING 125
SWIDTH 361 0
DWIDTH 9 0
BBX 9 21 1 -4
BITMAP
0E00
0780
0380
0780
0780
0700
0F00
0E00
0E00
0600
0380
0E00
1C00
1C00
3C00
3C00
3C00
3C00
3800
3800
F000
ENDCHAR
STARTCHAR asciitilde
ENCODING 126
SWIDTH 636 0
DWIDTH 15 0
BBX 15 6 1 4
BITMAP
1C02
2602
4304
4184
80C8
8070
ENDCHAR
STARTCHAR space
ENCODING 160
SWIDTH 333 0
DWIDTH 8 0
BBX 1 1 0 0
BITMAP
00
ENDCHAR
STARTCHAR exclamdown
ENCODING 161
SWIDTH 265 0
DWIDTH 6 0
BBX 7 18 0 -5
BITMAP
1E
1E
1E
00
00
18
18
38
38
38
38
78
78
78
F0
F0
F0
F0
ENDCHAR
STARTCHAR cent
ENCODING 162
SWIDTH 636 0
DWIDTH 15 0
BBX 12 17 3 0
BITMAP
0080
0080
03F0
0DB0
1D30
3930
7100
7100
F300
F200
F200
F200
F200
7E20
3FC0
0400
0400
ENDCHAR
STARTCHAR sterling
ENCODING 163
SWIDTH 636 0
DWIDTH 15 0
BBX 14 17 3 0
BITMAP
00F8
038C
038C
0708
0700
0F00
0F00
3FC0
0E00
0E00
1E00
1C00
1800
3000
FFE0
FFE0
FFE0
ENDCHAR
STARTCHAR currency
ENCODING 164
SWIDTH 636 0
DWIDTH 16 0
BBX 17 15 1 1
BITMAP
100080
180100
0C0600
07FC00
061800
0C0C00
0C0C00
080C00
080C00
0C1800
0C3000
1FF800
300800
400400
800200
ENDCHAR
STARTCHAR yen
ENCODING 165
SWIDTH 636 0
DWIDTH 15 0
BBX 16 17 3 0
BITMAP
FE1F
7804
3C08
3C10
1E20
1E40
0F80
0F00
3FE0
0F00
0F00
7FC0
0E00
0E00
1E00
1E00
7F00
ENDCHAR
STARTCHAR brokenbar
ENCODING 166
SWIDTH 253 0
DWIDTH 6 0
BBX 6 21 2 -4
BITMAP
0C
0C
0C
18
18
18
18
18
30
30
00
30
30
60
60
60
60
60
C0
C0
C0
ENDCHAR
STARTCHAR section
ENCODING 167
SWIDTH 636 0
DWIDTH 15 0
BBX 14 22 2 -5
BITMAP
03FC
061C
0C0C
1C08
1C00
1E00
1F80
07E0
1BF0
10F8
3038
3830
3C30
3F60
1FC0
07E0
01F0
00F0
40E0
C0E0
E1C0
7F00
ENDCHAR
STARTCHAR dieresis
ENCODING 168
SWIDTH 599 0
DWIDTH 14 0
BBX 8 2 7 15
BITMAP
E7
E7
ENDCHAR
STARTCHAR copyright
ENCODING 169
SWIDTH 853 0
DWIDTH 20 0
BBX 18 17 3 0
BITMAP
03F000
0C0C00
100300
200100
40F880
430C40
860840
8E0040
8C0040
8C0040
8C0040
461040
43F080
200100
100300
0C0C00
03F000
ENDCHAR
STARTCHAR ordfeminine
ENCODING 170
SWIDTH 468 0
DWIDTH 11 0
BBX 10 9 3 8
BITMAP
0FC0
39C0
71C0
63C0
E780
E780
EB80
F380
67C0
ENDCHAR
STARTCHAR guillemotleft
ENCODING 171
SWIDTH 527 0
DWIDTH 13 0
BBX 12 11 2 1
BITMAP
0420
0E70
1CE0
39C0
7380
E700
7380
7380
39C0
18C0
1080
ENDCHAR
STARTCHAR logicalnot
ENCODING 172
SWIDTH 636 0
DWIDTH 15 0
BBX 14 8 2 3
BITMAP
FFFC
000C
000C
000C
0008
0018
0018
0018
ENDCHAR
STARTCHAR hyphen
ENCODING 173
SWIDTH 289 0
DWIDTH 7 0
BBX 6 1 2 8
BITMAP
FC
ENDCHAR
STARTCHAR registered
ENCODING 174
SWIDTH 636 0
DWIDTH 15 0
BBX 11 11 4 6
BITMAP
1F00
20C0
4040
9F20
89A0
8920
8E20
9A20
5340
2080
1F00
ENDCHAR
STARTCHAR macron
ENCODING 175
SWIDTH 599 0
DWIDTH 14 0
BBX 8 1 7 16
BITMAP
FF
ENDCHAR
STARTCHAR degree
ENCODING 176
SWIDTH 259 0
DWIDTH 6 0
BBX 4 4 5 13
BITMAP
60
90
90
60
ENDCHAR
STARTCHAR plusminus
ENCODING 177
SWIDTH 636 0
DWIDTH 15 0
BBX 16 14 0 0
BITMAP
0060
0040
0040
00C0
00C0
3FFF
0080
0180
0180
0180
0180
0000
0000
FFFC
ENDCHAR
STARTCHAR twosuperior
ENCODING 178
SWIDTH 381 0
DWIDTH 9 0
BBX 9 10 -14 7
BITMAP
1F00
3380
2180
0380
0700
0C00
3000
4000
FF00
FE00
ENDCHAR
STARTCHAR threesuperior
ENCODING 179
SWIDTH 381 0
DWIDTH 9 0
BBX 8 10 -14 7
BITMAP
3E
23
23
06
38
06
06
86
8E
F8
ENDCHAR
STARTCHAR acute
ENCODING 180
SWIDTH 599 0
DWIDTH 14 0
BBX 6 3 9 14
BITMAP
3C
70
C0
ENDCHAR
STARTCHAR mu
ENCODING 181
SWIDTH 687 0
DWIDTH 16 0
BBX 15 17 2 -4
BITMAP
7E7E
1E1E
1C1E
1C1C
3C1C
3C3C
3C3C
387C
38F8
78B8
79F8
7F78
7E7E
7000
F000
F000
F000
ENDCHAR
STARTCHAR paragraph
ENCODING 182
SWIDTH 636 0
DWIDTH 15 0
BBX 11 21 4 -4
BITMAP
3FE0
7C40
FC40
FC40
FCC0
FC80
7880
7880
1880
0980
0900
1100
1100
1100
1300
1200
2200
2200
2200
2200
6400
ENDCHAR
STARTCHAR periodcentered
ENCODING 183
SWIDTH 636 0
DWIDTH 15 0
BBX 3 3 7 6
BITMAP
E0
E0
E0
ENDCHAR
STARTCHAR cedilla
ENCODING 184
SWIDTH 599 0
DWIDTH 14 0
BBX 4 6 4 -5
BITMAP
20
60
70
30
30
E0
ENDCHAR
STARTCHAR onesuperior
ENCODING 185
SWIDTH 381 0
DWIDTH 9 0
BBX 6 10 -15 7
BITMAP
3C
0C
18
18
18
18
18
30
30
FC
ENDCHAR
STARTCHAR ordmasculine
ENCODING 186
SWIDTH 468 0
DWIDTH 11 0
BBX 11 9 3 8
BITMAP
0F80
19C0
30E0
60E0
E0C0
E1C0
E180
E300
7C00
ENDCHAR
STARTCHAR guillemotright
ENCODING 187
SWIDTH 527 0
DWIDTH 13 0
BBX 12 11 1 1
BITMAP
1080
3180
39C0
1CE0
1CE0
0E70
1CE0
39C0
7380
E700
4200
ENDCHAR
STARTCHAR onequarter
ENCODING 188
SWIDTH 818 0
DWIDTH 20 0
BBX 19 17 4 0
BITMAP
3C00E0
0C0180
180300
180600
180C00
181800
183000
3060C0
30E1C0
FCC280
018580
030980
061180
0C3FC0
180300
300300
E00780
ENDCHAR
STARTCHAR onehalf
ENCODING 189
SWIDTH 818 0
DWIDTH 20 0
BBX 19 17 4 0
BITMAP
3C00E0
0C0180
180300
180600
180C00
181800
183000
306F80
30F9C0
FCD0C0
0181C0
030380
060600
0C1800
182000
307F80
E07F00
ENDCHAR
STARTCHAR threequarters
ENCODING 190
SWIDTH 818 0
DWIDTH 20 0
BBX 20 17 5 0
BITMAP
3E0070
2300C0
230180
060300
380600
060C00
061800
863060
8E70E0
F86140
00C2C0
0184C0
0308C0
061FE0
0C0180
180180
7003C0
ENDCHAR
STARTCHAR questiondown
ENCODING 191
SWIDTH 493 0
DWIDTH 12 0
BBX 11 18 0 -5
BITMAP
01E0
01E0
01E0
0000
0000
03C0
0380
0380
0700
0C00
1800
3000
7000
F000
F060
F040
78C0
3F80
ENDCHAR
STARTCHAR Agrave
ENCODING 192
SWIDTH 765 0
DWIDTH 18 0
BBX 19 21 0 0
BITMAP
003C00
000C00
000600
000000
000C00
001C00
003C00
003E00
007E00
00CE00
008E00
018F00
010F00
020F00
060700
07FF00
080780
180780
100380
3003C0
F80FE0
ENDCHAR
STARTCHAR Aacute
ENCODING 193
SWIDTH 765 0
DWIDTH 18 0
BBX 19 21 0 0
BITMAP
000780
000E00
001800
000000
000C00
001C00
003C00
003E00
007E00
00CE00
008E00
018F00
010F00
020F00
060700
07FF00
080780
180780
100380
3003C0
F80FE0
ENDCHAR
STARTCHAR Acircumflex
ENCODING 194
SWIDTH 765 0
DWIDTH 18 0
BBX 19 21 0 0
BITMAP
000F00
001B00
006180
000000
000C00
001C00
003C00
003E00
007E00
00CE00
008E00
018F00
010F00
020F00
060700
07FF00
080780
180780
100380
3003C0
F80FE0
ENDCHAR
STARTCHAR Atilde
ENCODING 195
SWIDTH 765 0
DWIDTH 18 0
BBX 19 21 0 0
BITMAP
001C40
003F80
004700
000000
000C00
001C00
003C00
003E00
007E00
00CE00
008E00
018F00
010F00
020F00
060700
07FF00
080780
180780
100380
3003C0
F80FE0
ENDCHAR
STARTCHAR Adieresis
ENCODING 196
SWIDTH 765 0
DWIDTH 18 0
BBX 19 20 0 0
BITMAP
007380
007380
000000
000C00
001C00
003C00
003E00
007E00
00CE00
008E00
018F00
010F00
020F00
060700
07FF00
080780
180780
100380
3003C0
F80FE0
ENDCHAR
STARTCHAR Aring
ENCODING 197
SWIDTH 765 0
DWIDTH 18 0
BBX 19 22 0 0
BITMAP
000600
000900
000900
000600
000000
000C00
001C00
003C00
003E00
007E00
00CE00
008E00
018F00
010F00
020F00
060700
07FF00
080780
180780
100380
3003C0
F80FE0
ENDCHAR
STARTCHAR AE
ENCODING 198
SWIDTH 958 0
DWIDTH 23 0
BBX 25 17 0 0
BITMAP
0003FF80
00078180
000B8100
001F8000
00378000
00278000
00478000
00C70400
018FFC00
010F0C00
020F0000
07FE0000
0C0E0000
181E0000
101E0600
301E0C00
F87FFC00
ENDCHAR
STARTCHAR Ccedilla
ENCODING 199
SWIDTH 740 0
DWIDTH 18 0
BBX 17 22 2 -5
BITMAP
00FF00
038380
0E0180
1C0100
3C0300
380000
780000
700000
F00000
F00000
F00000
F00000
F00000
700000
780000
3C0C00
0FF000
0C0000
0E0000
060000
060000
1C0000
ENDCHAR
STARTCHAR Egrave
ENCODING 200
SWIDTH 630 0
DWIDTH 15 0
BBX 16 21 1 0
BITMAP
00F0
0030
0018
0000
1FFF
0783
0702
0700
0F00
0F00
0F00
0E08
0FF8
1E10
1E00
1E00
1C00
1C00
3C0C
3C18
FFF8
ENDCHAR
STARTCHAR Eacute
ENCODING 201
SWIDTH 630 0
DWIDTH 15 0
BBX 16 21 1 0
BITMAP
001E
0038
0060
0000
1FFF
0783
0702
0700
0F00
0F00
0F00
0E08
0FF8
1E10
1E00
1E00
1C00
1C00
3C0C
3C18
FFF8
ENDCHAR
STARTCHAR Ecircumflex
ENCODING 202
SWIDTH 630 0
DWIDTH 15 0
BBX 16 21 1 0
BITMAP
0078
00D8
030C
0000
1FFF
0783
0702
0700
0F00
0F00
0F00
0E08
0FF8
1E10
1E00
1E00
1C00
1C00
3C0C
3C18
FFF8
ENDCHAR
STARTCHAR Edieresis
ENCODING 203
SWIDTH 630 0
DWIDTH 15 0
BBX 16 20 1 0
BITMAP
01CE
01CE
0000
1FFF
0783
0702
0700
0F00
0F00
0F00
0E08
0FF8
1E10
1E00
1E00
1C00
1C00
3C0C
3C18
FFF8
ENDCHAR
STARTCHAR Igrave
ENCODING 204
SWIDTH 372 0
DWIDTH 9 0
BBX 11 21 1 0
BITMAP
0780
0180
00C0
0000
1FE0
0780
0780
0700
0700
0F00
0F00
0F00
0E00
1E00
1E00
1E00
1C00
1C00
3C00
3C00
FF00
ENDCHAR
STARTCHAR Iacute
ENCODING 205
SWIDTH 372 0
DWIDTH 9 0
BBX 12 21 1 0
BITMAP
00F0
01C0
0300
0000
1FE0
0780
0780
0700
0700
0F00
0F00
0F00
0E00
1E00
1E00
1E00
1C00
1C00
3C00
3C00
FF00
ENDCHAR
STARTCHAR Icircumflex
ENCODING 206
SWIDTH 372 0
DWIDTH 9 0
BBX 11 21 1 0
BITMAP
03C0
06C0
1860
0000
1FE0
0780
0780
0700
0700
0F00
0F00
0F00
0E00
1E00
1E00
1E00
1C00
1C00
3C00
3C00
FF00
ENDCHAR
STARTCHAR Idieresis
ENCODING 207
SWIDTH 372 0
DWIDTH 9 0
BBX 12 20 1 0
BITMAP
0E70
0E70
0000
1FE0
0780
0780
0700
0700
0F00
0F00
0F00
0E00
1E00
1E00
1E00
1C00
1C00
3C00
3C00
FF00
ENDCHAR
STARTCHAR Eth
ENCODING 208
SWIDTH 822 0
DWIDTH 20 0
BBX 20 17 1 0
BITMAP
1FFF00
0783C0
0781E0
0700F0
0700F0
0F00F0
0F00F0
0F00F0
7FF0F0
1E00E0
1E00E0
1E01E0
1E01C0
1C0380
3C0700
3C1E00
FFF800
ENDCHAR
STARTCHAR Ntilde
ENCODING 209
SWIDTH 797 0
DWIDTH 19 0
BBX 21 21 1 0
BITMAP
003880
007F00
008E00
000000
1F01F8
078060
078060
07C040
0DC0C0
0DE0C0
0CE0C0
0CF0C0
087080
187980
183D80
183D80
181F80
100F00
300F00
300700
FC0700
ENDCHAR
STARTCHAR Ograve
ENCODING 210
SWIDTH 831 0
DWIDTH 20 0
BBX 18 21 3 0
BITMAP
00F000
003000
001800
000000
00FC00
038700
0E0380
1C03C0
3C03C0
3803C0
7803C0
7003C0
F003C0
F003C0
F00380
F00780
F00700
F00E00
701C00
383000
0FC000
ENDCHAR
STARTCHAR Oacute
ENCODING 211
SWIDTH 831 0
DWIDTH 20 0
BBX 18 21 3 0
BITMAP
001E00
003800
006000
000000
00FC00
038700
0E0380
1C03C0
3C03C0
3803C0
7803C0
7003C0
F003C0
F003C0
F00380
F00780
F00700
F00E00
701C00
383000
0FC000
ENDCHAR
STARTCHAR Ocircumflex
ENCODING 212
SWIDTH 831 0
DWIDTH 20 0
BBX 18 21 3 0
BITMAP
003C00
006C00
018600
000000
00FC00
038700
0E0380
1C03C0
3C03C0
3803C0
7803C0
7003C0
F003C0
F003C0
F00380
F00780
F00700
F00E00
701C00
383000
0FC000
ENDCHAR
STARTCHAR Otilde
ENCODING 213
SWIDTH 831 0
DWIDTH 20 0
BBX 18 21 3 0
BITMAP
007100
00FE00
011C00
000000
00FC00
038700
0E0380
1C03C0
3C03C0
3803C0
7803C0
7003C0
F003C0
F003C0
F00380
F00780
F00700
F00E00
701C00
383000
0FC000
ENDCHAR
STARTCHAR Odieresis
ENCODING 214
SWIDTH 831 0
DWIDTH 20 0
BBX 18 20 3 0
BITMAP
01CE00
01CE00
000000
00FC00
038700
0E0380
1C03C0
3C03C0
3803C0
7803C0
7003C0
F003C0
F003C0
F00380
F00780
F00700
F00E00
701C00
383000
0FC000
ENDCHAR
STARTCHAR multiply
ENCODING 215
SWIDTH 636 0
DWIDTH 15 0
BBX 16 14 1 0
BITMAP
1002
3807
1C0E
0C18
0630
0360
03C0
03C0
06C0
0C60
1830
7038
E01C
4008
ENDCHAR
STARTCHAR Oslash
ENCODING 216
SWIDTH 831 0
DWIDTH 20 0
BBX 21 17 1 0
BITMAP
003F18
01C3E0
0381E0
0700E0
0E03F0
1C06F0
1C0CF0
3C18F0
3C20E0
3841E0
3881E0
7901C0
3E0380
3C0380
3C0600
3E1C00
C7F000
ENDCHAR
STARTCHAR Ugrave
ENCODING 217
SWIDTH 775 0
DWIDTH 19 0
BBX 18 21 4 0
BITMAP
01E000
006000
003000
000000
FF0FC0
3C0300
380200
380200
780200
780600
780400
700400
700400
F00400
F00800
F00800
F00800
F01000
701000
786000
1F8000
ENDCHAR
STARTCHAR Uacute
ENCODING 218
SWIDTH 775 0
DWIDTH 19 0
BBX 18 21 4 0
BITMAP
003C00
007000
00C000
000000
FF0FC0
3C0300
380200
380200
780200
780600
780400
700400
700400
F00400
F00800
F00800
F00800
F01000
701000
786000
1F8000
ENDCHAR
STARTCHAR Ucircumflex
ENCODING 219
SWIDTH 775 0
DWIDTH 19 0
BBX 18 21 4 0
BITMAP
00F000
01B000
061800
000000
FF0FC0
3C0300
380200
380200
780200
780600
780400
700400
700400
F00400
F00800
F00800
F00800
F01000
701000
786000
1F8000
ENDCHAR
STARTCHAR Udieresis
ENCODING 220
SWIDTH 775 0
DWIDTH 19 0
BBX 18 20 4 0
BITMAP
039C00
039C00
000000
FF0FC0
3C0300
380200
380200
780200
780600
780400
700400
700400
F00400
F00800
F00800
F00800
F01000
701000
786000
1F8000
ENDCHAR
STARTCHAR Yacute
ENCODING 221
SWIDTH 669 0
DWIDTH 16 0
BBX 16 21 3 0
BITMAP
0078
00E0
0180
0000
FE1F
7804
380C
3C18
3C30
1E20
1E40
0EC0
0F80
0F00
0F00
0F00
0E00
0E00
1E00
1E00
7F80
ENDCHAR
STARTCHAR Thorn
ENCODING 222
SWIDTH 628 0
DWIDTH 15 0
BBX 16 17 1 0
BITMAP
1FE0
0780
0780
07FC
071E
0F0F
0F0F
0F0F
0E0F
1E0E
1E0E
1E1C
1E38
1FE0
3C00
3C00
FF00
ENDCHAR
STARTCHAR germandbls
ENCODING 223
SWIDTH 656 0
DWIDTH 16 0
BBX 14 24 2 -5
BITMAP
01F0
0738
0638
0E38
0E38
0E30
1E60
1CC0
1CC0
1DE0
1CF0
3CF0
3878
383C
381C
381C
791C
7B38
73F0
7000
7000
F000
F000
E000
ENDCHAR
STARTCHAR agrave
ENCODING 224
SWIDTH 634 0
DWIDTH 15 0
BBX 14 17 2 0
BITMAP
01E0
0060
0030
0000
03FC
043C
183C
3838
3838
7078
70F8
F0F8
F170
F370
FEF0
FCF0
70FC
ENDCHAR
STARTCHAR aacute
ENCODING 225
SWIDTH 634 0
DWIDTH 15 0
BBX 14 17 2 0
BITMAP
003C
0070
00C0
0000
03FC
043C
183C
3838
3838
7078
70F8
F0F8
F170
F370
FEF0
FCF0
70FC
ENDCHAR
STARTCHAR acircumflex
ENCODING 226
SWIDTH 634 0
DWIDTH 15 0
BBX 14 17 2 0
BITMAP
00F0
01B0
0618
0000
03FC
043C
183C
3838
3838
7078
70F8
F0F8
F170
F370
FEF0
FCF0
70FC
ENDCHAR
STARTCHAR atilde
ENCODING 227
SWIDTH 634 0
DWIDTH 15 0
BBX 14 17 2 0
BITMAP
01C4
03F8
0470
0000
03FC
043C
183C
3838
3838
7078
70F8
F0F8
F170
F370
FEF0
FCF0
70FC
ENDCHAR
STARTCHAR adieresis
ENCODING 228
SWIDTH 634 0
DWIDTH 15 0
BBX 14 16 2 0
BITMAP
039C
039C
0000
03FC
043C
183C
3838
3838
7078
70F8
F0F8
F170
F370
FEF0
FCF0
70FC
ENDCHAR
STARTCHAR aring
ENCODING 229
SWIDTH 634 0
DWIDTH 15 0
BBX 14 18 2 0
BITMAP
0060
0090
0090
0060
0000
03FC
043C
183C
3838
3838
7078
70F8
F0F8
F170
F370
FEF0
FCF0
70FC
ENDCHAR
STARTCHAR ae
ENCODING 230
SWIDTH 905 0
DWIDTH 22 0
BBX 20 13 2 0
BITMAP
03FFE0
0C7CF0
183870
383870
387870
7070E0
7071C0
F0FF00
F1F000
F37000
F67010
FC3870
781F80
ENDCHAR
STARTCHAR ccedilla
ENCODING 231
SWIDTH 524 0
DWIDTH 13 0
BBX 12 18 2 -5
BITMAP
03F0
0E30
1C30
3830
7000
7000
F000
F000
F000
F000
F000
7040
3F80
1800
1C00
0C00
0C00
3800
ENDCHAR
STARTCHAR egrave
ENCODING 232
SWIDTH 548 0
DWIDTH 13 0
BBX 12 17 2 0
BITMAP
0780
0180
00C0
0000
03C0
0CE0
18F0
30F0
70E0
70E0
F380
FF00
F000
F000
F030
7860
3F80
ENDCHAR
STARTCHAR eacute
ENCODING 233
SWIDTH 548 0
DWIDTH 13 0
BBX 12 17 2 0
BITMAP
00F0
01C0
0300
0000
03C0
0CE0
18F0
30F0
70E0
70E0
F380
FF00
F000
F000
F030
7860
3F80
ENDCHAR
STARTCHAR ecircumflex
ENCODING 234
SWIDTH 548 0
DWIDTH 13 0
BBX 12 17 2 0
BITMAP
01E0
0360
0C30
0000
03C0
0CE0
18F0
30F0
70E0
70E0
F380
FF00
F000
F000
F030
7860
3F80
ENDCHAR
STARTCHAR edieresis
ENCODING 235
SWIDTH 548 0
DWIDTH 13 0
BBX 12 16 2 0
BITMAP
0E70
0E70
0000
03C0
0CE0
18F0
30F0
70E0
70E0
F380
FF00
F000
F000
F030
7860
3F80
ENDCHAR
STARTCHAR igrave
ENCODING 236
SWIDTH 319 0
DWIDTH 8 0
BBX 7 17 2 0
BITMAP
3C
0C
06
00
FC
3C
3C
38
38
78
78
78
70
70
F0
F0
FC
ENDCHAR
STARTCHAR iacute
ENCODING 237
SWIDTH 319 0
DWIDTH 8 0
BBX 9 17 2 0
BITMAP
0780
0E00
1800
0000
FC00
3C00
3C00
3800
3800
7800
7800
7800
7000
7000
F000
F000
FC00
ENDCHAR
STARTCHAR icircumflex
ENCODING 238
SWIDTH 319 0
DWIDTH 8 0
BBX 9 17 2 0
BITMAP
0F00
1B00
6180
0000
FC00
3C00
3C00
3800
3800
7800
7800
7800
7000
7000
F000
F000
FC00
ENDCHAR
STARTCHAR idieresis
ENCODING 239
SWIDTH 319 0
DWIDTH 8 0
BBX 9 16 2 0
BITMAP
7380
7380
0000
FC00
3C00
3C00
3800
3800
7800
7800
7800
7000
7000
F000
F000
FC00
ENDCHAR
STARTCHAR eth
ENCODING 240
SWIDTH 617 0
DWIDTH 15 0
BBX 13 19 2 0
BITMAP
0010
0020
1FC0
03E0
0FF0
0470
03F8
0C78
1878
3838
7038
7038
F038
F070
F070
F060
F0C0
7980
3E00
ENDCHAR
STARTCHAR ntilde
ENCODING 241
SWIDTH 656 0
DWIDTH 16 0
BBX 14 17 2 0
BITMAP
01C4
03F8
0470
0000
FC38
3C7C
3DFC
39BC
3A3C
3C38
7C38
7838
7078
7078
7070
F070
F0FC
ENDCHAR
STARTCHAR ograve
ENCODING 242
SWIDTH 599 0
DWIDTH 14 0
BBX 13 17 2 0
BITMAP
03C0
00C0
0060
0000
03E0
0C70
1C38
3838
7038
7038
F038
F078
F070
F060
F0E0
7980
3E00
ENDCHAR
STARTCHAR oacute
ENCODING 243
SWIDTH 599 0
DWIDTH 14 0
BBX 13 17 2 0
BITMAP
0078
00E0
0180
0000
03E0
0C70
1C38
3838
7038
7038
F038
F078
F070
F060
F0E0
7980
3E00
ENDCHAR
STARTCHAR ocircumflex
ENCODING 244
SWIDTH 599 0
DWIDTH 14 0
BBX 13 17 2 0
BITMAP
00F0
01B0
0618
0000
03E0
0C70
1C38
3838
7038
7038
F038
F078
F070
F060
F0E0
7980
3E00
ENDCHAR
STARTCHAR otilde
ENCODING 245
SWIDTH 599 0
DWIDTH 14 0
BBX 14 17 2 0
BITMAP
01C4
03F8
0470
0000
03E0
0C70
1C38
3838
7038
7038
F038
F078
F070
F060
F0E0
7980
3E00
ENDCHAR
STARTCHAR odieresis
ENCODING 246
SWIDTH 599 0
DWIDTH 14 0
BBX 13 16 2 0
BITMAP
0738
0738
0000
03E0
0C70
1C38
3838
7038
7038
F038
F078
F070
F060
F0E0
7980
3E00
ENDCHAR
STARTCHAR divide
ENCODING 247
SWIDTH 636 0
DWIDTH 15 0
BBX 14 13 2 0
BITMAP
0180
0180
0380
0000
0000
0000
FFFC
0000
0000
0000
0700
0600
0600
ENDCHAR
STARTCHAR oslash
ENCODING 248
SWIDTH 599 0
DWIDTH 14 0
BBX 16 13 1 0
BITMAP
01F7
063C
0C3C
1C3C
387C
38DC
791C
7A1C
7C38
7830
7860
38C0
DF00
ENDCHAR
STARTCHAR ugrave
ENCODING 249
SWIDTH 655 0
DWIDTH 16 0
BBX 14 17 2 0
BITMAP
03C0
00C0
0060
0000
FCFC
383C
3838
7838
7878
7078
70F8
70F0
F170
F670
FEF0
FCF0
70FC
ENDCHAR
STARTCHAR uacute
ENCODING 250
SWIDTH 655 0
DWIDTH 16 0
BBX 14 17 2 0
BITMAP
0078
00E0
0180
0000
FCFC
383C
3838
7838
7878
7078
70F8
70F0
F170
F670
FEF0
FCF0
70FC
ENDCHAR
STARTCHAR ucircumflex
ENCODING 251
SWIDTH 655 0
DWIDTH 16 0
BBX 14 17 2 0
BITMAP
00F0
01B0
0618
0000
FCFC
383C
3838
7838
7878
7078
70F8
70F0
F170
F670
FEF0
FCF0
70FC
ENDCHAR
STARTCHAR udieresis
ENCODING 252
SWIDTH 655 0
DWIDTH 16 0
BBX 14 16 2 0
BITMAP
0738
0738
0000
FCFC
383C
3838
7838
7878
7078
70F8
70F0
F170
F670
FEF0
FCF0
70FC
ENDCHAR
STARTCHAR yacute
ENCODING 253
SWIDTH 586 0
DWIDTH 14 0
BBX 16 22 0 -5
BITMAP
001E
0038
0060
0000
3E0F
0E07
0F07
0706
070E
070C
0798
07B0
03A0
03E0
03C0
0380
0300
0200
0600
0C00
3800
F800
ENDCHAR
STARTCHAR thorn
ENCODING 254
SWIDTH 639 0
DWIDTH 15 0
BBX 15 21 1 -5
BITMAP
3F00
0E00
0E00
1E1C
1E7E
1EFE
1D9E
1D1E
3E1E
3C1C
3C1C
3838
3838
7830
7840
7F80
7000
7000
F000
F000
F000
ENDCHAR
STARTCHAR ydieresis
ENCODING 255
SWIDTH 586 0
DWIDTH 14 0
BBX 16 21 0 -5
BITMAP
01CE
01CE
0000
3E0F
0E07
0F07
0706
070E
070C
0798
07B0
03A0
03E0
03C0
0380
0300
0200
0600
0C00
3800
F800
ENDCHAR
ENDFONT
